<svg width="24" height="24" viewBox="0 0 24 24" fill="none" xmlns="http://www.w3.org/2000/svg">
<path d="M7 5V5C6.06812 5 5.60218 5 5.23463 5.15224C4.74458 5.35523 4.35523 5.74458 4.15224 6.23463C4 6.60218 4 7.06812 4 8V16.8C4 17.9201 4 18.4802 4.21799 18.908C4.40973 19.2843 4.71569 19.5903 5.09202 19.782C5.51984 20 6.07989 20 7.2 20H16.8C17.9201 20 18.4802 20 18.908 19.782C19.2843 19.5903 19.5903 19.2843 19.782 18.908C20 18.4802 20 17.9201 20 16.8V8C20 7.06812 20 6.60218 19.8478 6.23463C19.6448 5.74458 19.2554 5.35523 18.7654 5.15224C18.3978 5 17.9319 5 17 5V5M7 5V3M7 5H17M17 3V5M5 10H19" stroke="#687084" stroke-width="2" stroke-linecap="round"/>
</svg>
