<svg width="48" height="48" viewBox="0 0 48 48" fill="none" xmlns="http://www.w3.org/2000/svg">
<path d="M0 12.8C0 8.31958 0 6.07937 0.871948 4.36808C1.63893 2.86278 2.86278 1.63893 4.36808 0.871948C6.07937 0 8.31958 0 12.8 0H35.2C39.6804 0 41.9206 0 43.6319 0.871948C45.1372 1.63893 46.3611 2.86278 47.1281 4.36808C48 6.07937 48 8.31958 48 12.8V35.2C48 39.6804 48 41.9206 47.1281 43.6319C46.3611 45.1372 45.1372 46.3611 43.6319 47.1281C41.9206 48 39.6804 48 35.2 48H12.8C8.31958 48 6.07937 48 4.36808 47.1281C2.86278 46.3611 1.63893 45.1372 0.871948 43.6319C0 41.9206 0 39.6804 0 35.2V12.8Z" fill="url(#paint0_linear_729_2349)"/>
<path d="M31.0277 19.3868C30.7756 16.7659 28.5132 15.8875 25.6543 15.637V12H23.4421V15.54C22.8612 15.54 22.2662 15.5509 21.676 15.5634V12H19.4637L19.4621 15.6339C18.983 15.6433 18.5118 15.6527 18.053 15.6527V15.6417L15.0016 15.6402V18.0043C15.0016 18.0043 16.6361 17.973 16.6079 18.0027C17.5051 18.0027 17.7963 18.5225 17.8808 18.9719V23.1146C17.9434 23.1146 18.0233 23.1178 18.1141 23.1303H17.8808L17.8793 28.9342C17.8401 29.216 17.6742 29.6653 17.0479 29.6669C17.0761 29.692 15.44 29.6669 15.44 29.6669L15 32.3097H17.8808C18.4163 32.3097 18.9439 32.3191 19.4606 32.3223L19.4621 36H21.6729V32.3614C22.2788 32.3739 22.8659 32.3786 23.4405 32.3786L23.4389 36H25.6512V32.3301C29.3712 32.1172 31.9781 31.1793 32.3006 27.6848C32.5621 24.8713 31.2391 23.6141 29.127 23.1068C30.4124 22.4555 31.2156 21.3047 31.0277 19.3868ZM27.9308 27.2495C27.9308 29.9973 23.226 29.6857 21.7245 29.6857V24.8118C23.226 24.8149 27.9308 24.3844 27.9308 27.2495ZM26.9006 20.3747C26.9006 22.8751 22.9739 22.5823 21.7245 22.5839V18.1656C22.9755 18.1656 26.9022 17.7679 26.9006 20.3747Z" fill="white"/>
<defs>
<linearGradient id="paint0_linear_729_2349" x1="48" y1="0" x2="5.72205e-06" y2="48" gradientUnits="userSpaceOnUse">
<stop stop-color="#FF9C33"/>
<stop offset="1" stop-color="#FFC78C"/>
</linearGradient>
</defs>
</svg>
