<svg width="48" height="48" viewBox="0 0 48 48" fill="none" xmlns="http://www.w3.org/2000/svg">
<path d="M0 12.8C0 8.31958 0 6.07937 0.871948 4.36808C1.63893 2.86278 2.86278 1.63893 4.36808 0.871948C6.07937 0 8.31958 0 12.8 0H35.2C39.6804 0 41.9206 0 43.6319 0.871948C45.1372 1.63893 46.3611 2.86278 47.1281 4.36808C48 6.07937 48 8.31958 48 12.8V35.2C48 39.6804 48 41.9206 47.1281 43.6319C46.3611 45.1372 45.1372 46.3611 43.6319 47.1281C41.9206 48 39.6804 48 35.2 48H12.8C8.31958 48 6.07937 48 4.36808 47.1281C2.86278 46.3611 1.63893 45.1372 0.871948 43.6319C0 41.9206 0 39.6804 0 35.2V12.8Z" fill="url(#paint0_linear_729_2331)"/>
<path fill-rule="evenodd" clip-rule="evenodd" d="M16.3664 32.2801C16.2931 32.6356 16.2328 32.9434 16.2328 32.965C16.2328 33.0171 25.3621 33.0084 25.9957 32.9564C26.2802 32.9304 26.7069 32.8827 26.944 32.8523C26.9904 32.8455 27.0387 32.8384 27.0874 32.8313C27.2873 32.8018 27.4918 32.7718 27.5819 32.7613C27.6983 32.744 27.9655 32.6746 28.1767 32.6052C28.3836 32.5359 28.5862 32.4795 28.6207 32.4795C28.694 32.4795 29.2543 32.2411 29.7673 31.9853C30.0776 31.8379 30.4095 31.6341 30.9569 31.2657C31.4655 30.9232 32.3793 29.9564 32.8017 29.3148C32.9354 29.1111 33.0647 28.9203 33.0905 28.89C33.1207 28.8553 33.1983 28.7209 33.2673 28.5865C33.3405 28.4478 33.4138 28.3221 33.4311 28.296C33.4871 28.2223 33.8448 27.403 34.0043 26.9955C34.3147 26.1805 34.6466 24.9449 34.7673 24.1343C34.7888 23.9695 34.8535 23.5794 34.9052 23.2672C34.9871 22.773 35 22.5432 35 21.4248C35 20.1025 35 20.0852 34.7888 19.2355C34.6854 18.8193 34.4311 18.1604 34.2543 17.8482C34.1035 17.5881 34.013 17.4624 33.7026 17.0896C33.5043 16.8511 32.9138 16.3222 32.8017 16.2832C32.7543 16.2659 32.6811 16.2182 32.6336 16.1748C32.5086 16.0665 31.8276 15.7283 31.4483 15.5939C31.0259 15.4379 30.8233 15.3858 30.3061 15.2731C30.0756 15.2226 29.9061 15.1832 29.7351 15.1522C29.0842 15.0343 28.4112 15.0388 24.2673 15.0217L19.388 15L19.3405 15.2341C19.3104 15.3598 19.2673 15.6026 19.2457 15.7673C19.2198 15.9364 19.1336 16.4306 19.0517 16.8728C18.7759 18.4075 18.7198 18.7413 18.75 18.7673C18.763 18.7846 20.6638 18.8106 22.9698 18.828C27.2759 18.8583 27.4957 18.867 28.1293 19.0404C28.8405 19.2398 29.3276 19.4913 29.7069 19.8641C30.6035 20.7485 30.7414 22.1921 30.1466 24.5244C30.0733 24.8105 29.9957 25.1357 29.9742 25.2527C29.9526 25.3655 29.8793 25.5996 29.8104 25.773C29.7371 25.942 29.6811 26.1068 29.6811 26.1328C29.6811 26.2108 29.25 27.0302 29.1595 27.1299C29.1164 27.1776 29.0776 27.2339 29.0776 27.2513C29.0776 27.2729 29.0345 27.3336 28.9828 27.3857C28.9267 27.4377 28.7802 27.5894 28.6552 27.7238C28.5302 27.8625 28.4138 27.9709 28.3966 27.9709C28.3793 27.9709 28.2888 28.0403 28.194 28.1226C28.0992 28.205 28.0086 28.2744 27.9914 28.2744C27.9742 28.2744 27.8578 28.3394 27.7328 28.4174C27.6078 28.4955 27.4354 28.5822 27.3535 28.6125C26.6509 28.8813 26.1811 29.007 25.5 29.1197C25.1509 29.1761 24.4698 29.1848 20.9871 29.1848H16.888L16.8578 29.4796C16.8405 29.64 16.7716 30.0518 16.6983 30.3986C16.6293 30.7454 16.5517 31.1659 16.5345 31.3307C16.513 31.4998 16.4397 31.9246 16.3664 32.2801ZM13.6336 23.3669C13.5259 23.5793 13 25.6255 13 25.8206C13 25.8856 13.4138 25.8899 17.4095 25.8899C21.5176 25.8899 21.9845 25.8993 22.3746 25.7308C22.445 25.7004 22.5129 25.6642 22.5991 25.6212C22.75 25.5475 22.9612 25.4087 23.0647 25.3177C23.2845 25.1226 23.5948 24.6241 23.6767 24.3293C23.8405 23.7484 24.2112 22.1964 24.2069 22.1053C24.2069 22.088 22.2241 22.0793 19.7974 22.088L19.7732 22.088C15.4438 22.101 15.3873 22.1012 15.0517 22.192C14.4138 22.3698 13.9267 22.7729 13.6336 23.3669Z" fill="white"/>
<defs>
<linearGradient id="paint0_linear_729_2331" x1="48" y1="0" x2="5.72205e-06" y2="48" gradientUnits="userSpaceOnUse">
<stop stop-color="#44B8FF"/>
<stop offset="1" stop-color="#A3DCFF"/>
</linearGradient>
</defs>
</svg>
