<svg width="48" height="48" viewBox="0 0 48 48" fill="none" xmlns="http://www.w3.org/2000/svg">
<path d="M0 12.8C0 8.31958 0 6.07937 0.871948 4.36808C1.63893 2.86278 2.86278 1.63893 4.36808 0.871948C6.07937 0 8.31958 0 12.8 0H35.2C39.6804 0 41.9206 0 43.6319 0.871948C45.1372 1.63893 46.3611 2.86278 47.1281 4.36808C48 6.07937 48 8.31958 48 12.8V35.2C48 39.6804 48 41.9206 47.1281 43.6319C46.3611 45.1372 45.1372 46.3611 43.6319 47.1281C41.9206 48 39.6804 48 35.2 48H12.8C8.31958 48 6.07937 48 4.36808 47.1281C2.86278 46.3611 1.63893 45.1372 0.871948 43.6319C0 41.9206 0 39.6804 0 35.2V12.8Z" fill="url(#paint0_linear_729_2243)"/>
<path fill-rule="evenodd" clip-rule="evenodd" d="M23.8248 33.9868H17.2999V25.0844H15V22.9039H17.2999V14.0007H22.8997C24.2244 14.0007 33 13.7183 33 24.1607C33 34.7757 23.8248 33.9868 23.8248 33.9868ZM23.5496 17.6948H20.9752V22.9031H25.0252V25.0844H20.9752V30.2928H23.6755C24.3699 30.2928 29.3723 30.373 29.3645 24.2329C29.3567 18.0928 24.5122 17.6948 23.5496 17.6948Z" fill="white"/>
<path fill-rule="evenodd" clip-rule="evenodd" d="M23.8248 33.9868H17.2999V25.0844H15V22.9039H17.2999V14.0007H22.8997C24.2244 14.0007 33 13.7183 33 24.1607C33 34.7757 23.8248 33.9868 23.8248 33.9868ZM20.9752 17.6948H23.5496C24.5122 17.6948 29.3567 18.0928 29.3645 24.2329C29.3723 30.373 24.3699 30.2928 23.6755 30.2928H20.9752V25.0844H25.0252V22.9031H20.9752V17.6948Z" fill="white"/>
<defs>
<linearGradient id="paint0_linear_729_2243" x1="48" y1="0" x2="5.72205e-06" y2="48" gradientUnits="userSpaceOnUse">
<stop stop-color="#EAC325"/>
<stop offset="1" stop-color="#FFEB99"/>
</linearGradient>
</defs>
</svg>
