<svg width="48" height="48" viewBox="0 0 48 48" fill="none" xmlns="http://www.w3.org/2000/svg">
<path d="M0 12.8C0 8.31958 0 6.07937 0.871948 4.36808C1.63893 2.86278 2.86278 1.63893 4.36808 0.871948C6.07937 0 8.31958 0 12.8 0H35.2C39.6804 0 41.9206 0 43.6319 0.871948C45.1372 1.63893 46.3611 2.86278 47.1281 4.36808C48 6.07937 48 8.31958 48 12.8V35.2C48 39.6804 48 41.9206 47.1281 43.6319C46.3611 45.1372 45.1372 46.3611 43.6319 47.1281C41.9206 48 39.6804 48 35.2 48H12.8C8.31958 48 6.07937 48 4.36808 47.1281C2.86278 46.3611 1.63893 45.1372 0.871948 43.6319C0 41.9206 0 39.6804 0 35.2V12.8Z" fill="url(#paint0_linear_729_2259)"/>
<g opacity="0.8">
<path d="M23.9978 12L23.845 12.5469V28.4162L23.9978 28.5768L30.9958 24.2226L23.9978 12Z" fill="#4D4D4D"/>
<path d="M23.9979 12L17 24.2226L23.9979 28.5769V20.8744V12Z" fill="#A6A6A6"/>
<path d="M23.998 29.9717L23.9119 30.0822V35.7352L23.998 36.0001L31.0001 25.6196L23.998 29.9717Z" fill="#575755"/>
<path d="M23.9979 35.9998V29.9714L17 25.6194L23.9979 35.9998Z" fill="#A6A6A6"/>
<path d="M23.998 28.5769L30.9959 24.2227L23.998 20.8745V28.5769Z" fill="#2E2E2E"/>
<path d="M17 24.2227L23.9978 28.5769V20.8745L17 24.2227Z" fill="#525252"/>
</g>
<defs>
<linearGradient id="paint0_linear_729_2259" x1="48" y1="0" x2="5.72205e-06" y2="48" gradientUnits="userSpaceOnUse">
<stop stop-color="#CBCFD4"/>
<stop offset="1" stop-color="#F5FAFF"/>
</linearGradient>
</defs>
</svg>
