<svg width="48" height="48" viewBox="0 0 48 48" fill="none" xmlns="http://www.w3.org/2000/svg">
<path d="M0 12.8C0 8.31958 0 6.07937 0.871948 4.36808C1.63893 2.86278 2.86278 1.63893 4.36808 0.871948C6.07937 0 8.31958 0 12.8 0H35.2C39.6804 0 41.9206 0 43.6319 0.871948C45.1372 1.63893 46.3611 2.86278 47.1281 4.36808C48 6.07937 48 8.31958 48 12.8V35.2C48 39.6804 48 41.9206 47.1281 43.6319C46.3611 45.1372 45.1372 46.3611 43.6319 47.1281C41.9206 48 39.6804 48 35.2 48H12.8C8.31958 48 6.07937 48 4.36808 47.1281C2.86278 46.3611 1.63893 45.1372 0.871948 43.6319C0 41.9206 0 39.6804 0 35.2V12.8Z" fill="url(#paint0_linear_729_2299)"/>
<path d="M22.9735 29.4616L24.1144 25.0593L26.8155 24.0481L27.4873 21.4608L27.4644 21.3966L24.8055 22.392L26.7213 15H21.2882L18.7829 24.6468L16.6912 25.4299L16 28.0971L18.0902 27.3147L16.6136 33H31.073L32 29.4616H22.9735Z" fill="white"/>
<defs>
<linearGradient id="paint0_linear_729_2299" x1="48" y1="0" x2="0" y2="48" gradientUnits="userSpaceOnUse">
<stop stop-color="#A6A6A6"/>
<stop offset="1" stop-color="#D9D9D9"/>
</linearGradient>
</defs>
</svg>
