<svg width="48" height="48" viewBox="0 0 48 48" fill="none" xmlns="http://www.w3.org/2000/svg">
<path d="M0 12.8C0 8.31958 0 6.07937 0.871948 4.36808C1.63893 2.86278 2.86278 1.63893 4.36808 0.871948C6.07937 0 8.31958 0 12.8 0H35.2C39.6804 0 41.9206 0 43.6319 0.871948C45.1372 1.63893 46.3611 2.86278 47.1281 4.36808C48 6.07937 48 8.31958 48 12.8V35.2C48 39.6804 48 41.9206 47.1281 43.6319C46.3611 45.1372 45.1372 46.3611 43.6319 47.1281C41.9206 48 39.6804 48 35.2 48H12.8C8.31958 48 6.07937 48 4.36808 47.1281C2.86278 46.3611 1.63893 45.1372 0.871948 43.6319C0 41.9206 0 39.6804 0 35.2V12.8Z" fill="url(#paint0_linear_729_3189)"/>
<path d="M21.7443 18.3636H19.2955V25.6818H19.1932L14.1705 18.3636H12.0114V30H14.4716V22.6761H14.5568L19.6193 30H21.7443V18.3636ZM23.617 18.3636V30H26.0034V22.3977H26.0999L29.1113 29.9432H30.7363L33.7477 22.4261H33.8443V30H36.2306V18.3636H33.1965L29.992 26.1818H29.8556L26.6511 18.3636H23.617Z" fill="white"/>
<defs>
<linearGradient id="paint0_linear_729_3189" x1="48" y1="0" x2="0" y2="48" gradientUnits="userSpaceOnUse">
<stop stop-color="#FFA740"/>
<stop offset="1" stop-color="#FFD39E"/>
</linearGradient>
</defs>
</svg>
