<svg width="48" height="48" viewBox="0 0 48 48" fill="none" xmlns="http://www.w3.org/2000/svg">
<path d="M0 12.8C0 8.31958 0 6.07937 0.871948 4.36808C1.63893 2.86278 2.86278 1.63893 4.36808 0.871948C6.07937 0 8.31958 0 12.8 0H35.2C39.6804 0 41.9206 0 43.6319 0.871948C45.1372 1.63893 46.3611 2.86278 47.1281 4.36808C48 6.07937 48 8.31958 48 12.8V35.2C48 39.6804 48 41.9206 47.1281 43.6319C46.3611 45.1372 45.1372 46.3611 43.6319 47.1281C41.9206 48 39.6804 48 35.2 48H12.8C8.31958 48 6.07937 48 4.36808 47.1281C2.86278 46.3611 1.63893 45.1372 0.871948 43.6319C0 41.9206 0 39.6804 0 35.2V12.8Z" fill="url(#paint0_linear_729_2315)"/>
<path fill-rule="evenodd" clip-rule="evenodd" d="M23.7167 17.1839H22.0937C21.828 17.1554 21.5035 17.1554 21.1793 17.128C21.0911 17.1554 21.0606 17.2402 21.031 17.3514C21.0017 17.4632 21.031 17.5468 21.0911 17.6301L21.4449 17.6584C21.8866 17.7411 22.2111 17.8249 22.4188 17.9094C22.6247 18.0203 22.7717 18.2158 22.8315 18.4668C22.8904 18.7178 22.9197 19.0519 22.8904 19.4707C22.8602 20.056 22.8315 20.7527 22.8019 21.5614C22.7717 22.371 22.7132 23.2071 22.6537 24.0721C22.5954 25.4091 22.4684 28.6668 22.0837 29.6312C21.9946 29.8543 21.8476 29.9941 21.6704 30.0788C21.4633 30.1612 21.2263 30.2451 20.9313 30.274L20.4579 30.3296C20.3698 30.3846 20.3399 30.4694 20.3698 30.6089C20.3698 30.6927 20.3991 30.7757 20.4878 30.8599C20.8715 30.8322 21.2263 30.804 21.6106 30.7757H23.9459C24.3885 30.804 24.7731 30.8322 25.1276 30.8599C25.2166 30.804 25.2755 30.7204 25.2755 30.6089C25.2755 30.4964 25.2462 30.4132 25.1568 30.3296L24.3299 30.274C24.0633 30.2451 23.8565 30.1898 23.7092 30.0788C23.6351 30.022 23.5756 29.9443 23.5314 29.8496C23.3569 29.4531 23.3532 28.7824 23.3622 28.366C23.3812 27.5016 23.3925 26.6375 23.4214 25.7729C23.451 24.9085 23.4806 24.1548 23.5096 23.5138C23.5382 22.9284 23.5989 22.3142 23.6276 21.7009C23.6572 21.0882 23.6862 20.474 23.7167 19.8606H23.7752C24.0116 20.3345 24.248 20.8086 24.4545 21.3383C24.6909 21.8407 24.9267 22.3428 25.1621 22.8172L27.1396 26.8035C27.3177 27.1393 27.5236 27.5575 27.759 28.0593C28.0253 28.5891 28.2901 29.0906 28.5268 29.5923C28.6517 29.8581 28.7597 30.1071 28.8513 30.3414C28.875 30.3414 29.0404 30.8552 29.0587 30.9149C29.1724 31.0238 29.3587 31.0212 29.4727 30.9149C29.6561 30.4994 29.8477 30.0788 30.061 29.6768C30.6201 28.4914 31.2031 27.3592 31.8615 26.219L33.7798 22.6218C33.9277 22.3142 34.0747 21.9796 34.2812 21.6176C34.488 21.2274 34.6942 20.8648 34.8717 20.5581C35.019 20.2232 35.1368 20.0004 35.1953 19.9165H35.2252L35.285 28.534C35.3137 28.9796 35.285 29.3128 35.2554 29.5641C35.2318 29.7636 35.1723 29.9532 34.9695 30.0506C34.8505 30.1898 34.6145 30.2451 34.2304 30.274L33.5801 30.3296C33.5209 30.3846 33.4917 30.4694 33.5209 30.6089C33.5209 30.6927 33.5508 30.7757 33.6399 30.8599C34.0825 30.8322 34.5547 30.804 34.9982 30.7757H37.5406C37.9831 30.804 38.4263 30.8322 38.8708 30.8599C38.9596 30.804 38.9885 30.7204 38.9885 30.6089C39.0178 30.4964 38.9885 30.4132 38.9297 30.3296L38.2202 30.274C37.895 30.2451 37.6586 30.1612 37.51 30.0217C37.364 29.8825 37.2453 29.7148 37.2157 29.4914C37.1855 29.2407 37.1559 28.9325 37.1559 28.5979C37.0955 27.5605 37.0544 26.5063 37.0257 25.4665C36.9958 24.3496 36.9367 23.291 36.9077 22.288V19.6378C36.9077 19.1637 36.9367 18.8014 36.9958 18.5221C37.0559 18.2717 37.2033 18.0489 37.4091 17.9094C37.6163 17.7979 37.9698 17.7134 38.4419 17.6584L38.8851 17.6301C38.9446 17.5742 38.9736 17.4906 38.9446 17.3514C38.9446 17.2672 38.9147 17.1839 38.8558 17.128C38.5014 17.1554 38.147 17.1554 37.8227 17.1839H36.2293C35.9631 17.1554 35.6675 17.1554 35.285 17.128C35.2554 17.6013 35.0782 18.1322 34.8125 18.7458C34.488 19.3859 34.1049 20.1682 33.6328 21.0882L31.5663 25.0195C31.0306 26.0898 30.5425 27.1084 29.886 28.1232H29.8271C29.3048 27.192 28.8233 26.2258 28.3496 25.2711L25.8417 20.5299C25.5175 19.8606 25.2219 19.2199 24.9859 18.6343C24.779 18.0489 24.6909 17.5468 24.7202 17.128C24.3664 17.1554 24.0412 17.1554 23.7167 17.1839ZM11.6077 27.7842C11.6077 28.4943 11.5781 29.0349 11.518 29.4052C11.4585 30.1221 10.9576 30.3569 10.2516 30.4029L9.79935 30.4597C9.6539 30.5977 9.66511 30.8967 9.83081 31C10.7633 30.9453 11.6064 30.9144 12.542 30.9144C13.5396 30.9144 14.4696 30.9559 15.4641 31C15.5242 30.9432 15.5553 30.8579 15.5852 30.7443C15.5852 30.6021 15.5553 30.5159 15.4946 30.4597L14.8919 30.4029C14.4098 30.3734 14.0787 30.2881 13.8981 30.1456C13.8872 30.1383 13.8763 30.1306 13.8657 30.1227C13.6835 29.9797 13.553 29.7613 13.4982 29.4228C13.4384 29.0532 13.4082 28.5134 13.4384 27.8042V25.8126C12.7762 25.8415 12.1748 25.8126 11.6329 25.7276L11.6077 27.7842ZM9.67695 17.3988C9.64736 17.5121 9.70778 17.5971 9.7981 17.6831L10.5805 17.7672C10.9109 17.7967 11.152 17.8814 11.3021 18.0239C11.4522 18.1372 11.5432 18.3367 11.5728 18.649C11.6033 18.9615 11.6329 19.4174 11.6329 20.0134V24.2207C12.2346 24.2493 12.836 24.2493 13.4384 24.2207V18.4215C13.4082 18.1943 13.4384 18.0239 13.4982 17.8814C13.5281 17.7967 13.6486 17.7102 13.7987 17.6831C13.9794 17.6545 14.2809 17.6545 14.6717 17.6545C15.8145 17.6831 16.6872 17.9668 17.3188 18.5639C17.9205 19.1602 18.2211 19.9851 18.2211 21.0093C18.2522 21.9184 18.0111 22.6859 17.4997 23.3107C17.0484 23.852 16.3866 24.2493 15.4837 24.4482C14.6116 24.6475 13.3783 24.7328 11.7232 24.7037C10.279 24.6769 8.71487 24.591 7 24.4206C8.89582 24.7899 10.3092 25.0454 11.2124 25.1304C12.6856 25.302 14.1298 25.2726 15.4837 25.0745C16.1754 24.9883 16.8074 24.8185 17.3792 24.6195C17.9205 24.3923 18.4624 24.0795 19.034 23.7092C19.3647 23.4823 19.6656 23.1115 19.9369 22.6291C20.1477 22.1741 20.2676 21.6341 20.2972 20.9799C20.2676 20.2688 20.087 19.6449 19.7565 19.104C19.4252 18.5639 19.034 18.1372 18.5222 17.8255C18.0112 17.5406 17.3792 17.3125 16.6573 17.1704C15.9652 17.0571 15.1526 17 14.2204 17C13.3175 17 12.5053 17 11.7836 17.0283C11.0614 17.0571 10.3995 17.0853 9.82738 17.1421C9.73768 17.1995 9.67695 17.2846 9.67695 17.3988Z" fill="white"/>
<defs>
<linearGradient id="paint0_linear_729_2315" x1="48" y1="0" x2="5.72205e-06" y2="48" gradientUnits="userSpaceOnUse">
<stop stop-color="#FF4949"/>
<stop offset="1" stop-color="#FF8D8D"/>
</linearGradient>
</defs>
</svg>
