<svg width="48" height="48" viewBox="0 0 48 48" fill="none" xmlns="http://www.w3.org/2000/svg">
<path d="M0 12.8C0 8.31958 0 6.07937 0.871948 4.36808C1.63893 2.86278 2.86278 1.63893 4.36808 0.871948C6.07937 0 8.31958 0 12.8 0H35.2C39.6804 0 41.9206 0 43.6319 0.871948C45.1372 1.63893 46.3611 2.86278 47.1281 4.36808C48 6.07937 48 8.31958 48 12.8V35.2C48 39.6804 48 41.9206 47.1281 43.6319C46.3611 45.1372 45.1372 46.3611 43.6319 47.1281C41.9206 48 39.6804 48 35.2 48H12.8C8.31958 48 6.07937 48 4.36808 47.1281C2.86278 46.3611 1.63893 45.1372 0.871948 43.6319C0 41.9206 0 39.6804 0 35.2V12.8Z" fill="url(#paint0_linear_729_2193)"/>
<path d="M26.0328 21.0443V18.6493H31.6377V15H16.3755V18.6493H21.981V21.0424C17.4254 21.2469 14 22.1285 14 23.1847C14 24.2409 17.427 25.1225 21.981 25.3283V33H26.0341V25.3276C30.5815 25.1225 34 24.2415 34 23.1863C34 22.1311 30.5815 21.2501 26.0341 21.045L26.0328 21.0443ZM26.0341 24.6778V24.6759C25.9198 24.683 25.3323 24.7174 24.0241 24.7174C22.9782 24.7174 22.2423 24.6884 21.983 24.6752V24.6785C17.9582 24.5043 14.954 23.8194 14.954 22.9999C14.954 22.1804 17.9585 21.4964 21.983 21.3219V23.9961C22.2466 24.0138 23.0006 24.0573 24.0412 24.0573C25.2911 24.0573 25.9195 24.0064 26.0348 23.9961V21.3219C30.0517 21.4967 33.049 22.1823 33.049 22.9989C33.049 23.8155 30.0504 24.5014 26.0348 24.6762" fill="white"/>
<defs>
<linearGradient id="paint0_linear_729_2193" x1="48" y1="0" x2="0" y2="48" gradientUnits="userSpaceOnUse">
<stop stop-color="#44CAA4"/>
<stop offset="1" stop-color="#A6D8CA"/>
</linearGradient>
</defs>
</svg>
