<svg width="48" height="48" viewBox="0 0 48 48" fill="none" xmlns="http://www.w3.org/2000/svg">
<path d="M0 12.8C0 8.31958 0 6.07937 0.871948 4.36808C1.63893 2.86278 2.86278 1.63893 4.36808 0.871948C6.07937 0 8.31958 0 12.8 0H35.2C39.6804 0 41.9206 0 43.6319 0.871948C45.1372 1.63893 46.3611 2.86278 47.1281 4.36808C48 6.07937 48 8.31958 48 12.8V35.2C48 39.6804 48 41.9206 47.1281 43.6319C46.3611 45.1372 45.1372 46.3611 43.6319 47.1281C41.9206 48 39.6804 48 35.2 48H12.8C8.31958 48 6.07937 48 4.36808 47.1281C2.86278 46.3611 1.63893 45.1372 0.871948 43.6319C0 41.9206 0 39.6804 0 35.2V12.8Z" fill="url(#paint0_linear_729_2281)"/>
<path d="M23.9998 12C17.3736 12 12 17.3733 12 23.9997C12 25.3242 12.2146 26.5982 12.6111 27.79H16.1999V17.6937L23.9998 25.4937L31.7997 17.6937V27.79H35.3887C35.7853 26.5982 36 25.3242 36 23.9997C36 17.3733 30.6263 12 23.9998 12Z" fill="#FF944D"/>
<path d="M22.206 27.2865L18.8019 23.8823V30.2353H17.5007H16.1994H13.7456C15.8521 33.6912 19.6566 35.9991 23.9993 35.9991C28.342 35.9991 32.1469 33.6912 34.2531 30.2353H31.799H29.4716H29.1969V23.8823L25.7928 27.2865L23.9993 29.0797L22.2062 27.2865H22.206Z" fill="#666666"/>
<defs>
<linearGradient id="paint0_linear_729_2281" x1="48" y1="0" x2="0" y2="48" gradientUnits="userSpaceOnUse">
<stop stop-color="#DCE1E6"/>
<stop offset="1" stop-color="#F5FAFF"/>
</linearGradient>
</defs>
</svg>
