<svg width="21" height="18" viewBox="0 0 21 18" fill="none" xmlns="http://www.w3.org/2000/svg">
<path d="M5 5V13M19 12V12.2C19 13.8802 19 14.7202 18.673 15.362C18.3854 15.9265 17.9265 16.3854 17.362 16.673C16.7202 17 15.8802 17 14.2 17H5.8C4.11984 17 3.27976 17 2.63803 16.673C2.07354 16.3854 1.6146 15.9265 1.32698 15.362C1 14.7202 1 13.8802 1 12.2V5.8C1 4.11984 1 3.27976 1.32698 2.63803C1.6146 2.07354 2.07354 1.6146 2.63803 1.32698C3.27976 1 4.11984 1 5.8 1H14.2C15.8802 1 16.7202 1 17.362 1.32698C17.9265 1.6146 18.3854 2.07354 18.673 2.63803C19 3.27976 19 4.11984 19 5.8V6M19 12H18C17.0681 12 16.6022 12 16.2346 11.8478C15.7446 11.6448 15.3552 11.2554 15.1522 10.7654C15 10.3978 15 9.93188 15 9V9C15 8.06812 15 7.60218 15.1522 7.23463C15.3552 6.74458 15.7446 6.35523 16.2346 6.15224C16.6022 6 17.0681 6 18 6H19M19 12V12C19.5523 12 20 11.5523 20 11V7C20 6.44772 19.5523 6 19 6V6" stroke="#5C5CE6" stroke-width="2" stroke-linecap="round"/>
</svg>
