<svg width="18" height="19" viewBox="0 0 18 19" fill="none" xmlns="http://www.w3.org/2000/svg">
<path d="M4 3V3C3.06812 3 2.60218 3 2.23463 3.15224C1.74458 3.35523 1.35523 3.74458 1.15224 4.23463C1 4.60218 1 5.06812 1 6V14.8C1 15.9201 1 16.4802 1.21799 16.908C1.40973 17.2843 1.71569 17.5903 2.09202 17.782C2.51984 18 3.07989 18 4.2 18H13.8C14.9201 18 15.4802 18 15.908 17.782C16.2843 17.5903 16.5903 17.2843 16.782 16.908C17 16.4802 17 15.9201 17 14.8V6C17 5.06812 17 4.60218 16.8478 4.23463C16.6448 3.74458 16.2554 3.35523 15.7654 3.15224C15.3978 3 14.9319 3 14 3V3M4 3V1M4 3H14M14 1V3M2 8H16" stroke="#5C5CE6" stroke-width="2" stroke-linecap="round"/>
</svg>
