<svg width="21" height="20" viewBox="0 0 21 20" fill="none" xmlns="http://www.w3.org/2000/svg">
<path d="M0 12C0 12.5523 0.447715 13 1 13C1.55228 13 2 12.5523 2 12H0ZM12 16C11.4477 16 11 16.4477 11 17C11 17.5523 11.4477 18 12 18V16ZM4 19C4 19.5523 4.44772 20 5 20C5.55228 20 6 19.5523 6 19H4ZM6 13C6 12.4477 5.55228 12 5 12C4.44772 12 4 12.4477 4 13H6ZM8 17C8.55228 17 9 16.5523 9 16C9 15.4477 8.55228 15 8 15V17ZM2 15C1.44772 15 1 15.4477 1 16C1 16.5523 1.44772 17 2 17V15ZM15.1522 10.7654L16.0761 10.3827L15.1522 10.7654ZM16.2346 11.8478L15.8519 12.7716L16.2346 11.8478ZM18.673 15.362L19.564 15.816L18.673 15.362ZM17.362 16.673L17.816 17.564L17.362 16.673ZM16.2346 6.15224L15.8519 5.22836L16.2346 6.15224ZM15.1522 7.23463L16.0761 7.61732L15.1522 7.23463ZM17.362 1.32698L17.816 0.435974L17.362 1.32698ZM18.673 2.63803L19.564 2.18404L18.673 2.63803ZM5.8 2H14.2V0H5.8V2ZM2 12V5.8H0V12H2ZM18 12V12.2H20V12H18ZM18 5.8V6H20V5.8H18ZM19 5H18V7H19V5ZM19 7V11H21V7H19ZM18 13H19V11H18V13ZM14.2 16H12V18H14.2V16ZM6 19V16H4V19H6ZM6 16V13H4V16H6ZM5 17H8V15H5V17ZM5 15H2V17H5V15ZM19 11V13C20.1046 13 21 12.1046 21 11H19ZM19 7H21C21 5.89543 20.1046 5 19 5V7ZM14 9C14 9.45226 13.9995 9.84154 14.0213 10.1624C14.0439 10.4922 14.0934 10.8221 14.2284 11.1481L16.0761 10.3827C16.0589 10.3411 16.0323 10.2542 16.0167 10.0262C16.0005 9.78926 16 9.47962 16 9H14ZM18 11C17.5204 11 17.2107 10.9995 16.9738 10.9833C16.7458 10.9677 16.6589 10.9411 16.6173 10.9239L15.8519 12.7716C16.1779 12.9066 16.5078 12.9561 16.8376 12.9787C17.1585 13.0005 17.5477 13 18 13V11ZM14.2284 11.1481C14.5328 11.8831 15.1169 12.4672 15.8519 12.7716L16.6173 10.9239C16.3723 10.8224 16.1776 10.6277 16.0761 10.3827L14.2284 11.1481ZM18 12.2C18 13.0566 17.9992 13.6389 17.9624 14.089C17.9266 14.5274 17.8617 14.7516 17.782 14.908L19.564 15.816C19.8113 15.3306 19.9099 14.8139 19.9558 14.2518C20.0008 13.7014 20 13.0236 20 12.2H18ZM14.2 18C15.0236 18 15.7014 18.0008 16.2518 17.9558C16.8139 17.9099 17.3306 17.8113 17.816 17.564L16.908 15.782C16.7516 15.8617 16.5274 15.9266 16.089 15.9624C15.6389 15.9992 15.0566 16 14.2 16V18ZM17.782 14.908C17.5903 15.2843 17.2843 15.5903 16.908 15.782L17.816 17.564C18.5686 17.1805 19.1805 16.5686 19.564 15.816L17.782 14.908ZM18 5C17.5477 5 17.1585 4.99946 16.8376 5.02135C16.5078 5.04385 16.1779 5.09336 15.8519 5.22836L16.6173 7.07612C16.6589 7.05888 16.7458 7.03227 16.9738 7.01671C17.2107 7.00054 17.5204 7 18 7V5ZM16 9C16 8.52038 16.0005 8.21074 16.0167 7.97376C16.0323 7.74576 16.0589 7.65893 16.0761 7.61732L14.2284 6.85195C14.0934 7.17788 14.0439 7.50779 14.0213 7.83762C13.9995 8.15846 14 8.54774 14 9H16ZM15.8519 5.22836C15.1169 5.53284 14.5328 6.11687 14.2284 6.85195L16.0761 7.61732C16.1776 7.37229 16.3723 7.17761 16.6173 7.07612L15.8519 5.22836ZM14.2 2C15.0566 2 15.6389 2.00078 16.089 2.03755C16.5274 2.07337 16.7516 2.1383 16.908 2.21799L17.816 0.435974C17.3306 0.188683 16.8139 0.0901188 16.2518 0.0441936C15.7014 -0.000777721 15.0236 0 14.2 0V2ZM20 5.8C20 4.97642 20.0008 4.2986 19.9558 3.74817C19.9099 3.18608 19.8113 2.66937 19.564 2.18404L17.782 3.09202C17.8617 3.24842 17.9266 3.47262 17.9624 3.91104C17.9992 4.36113 18 4.94342 18 5.8H20ZM16.908 2.21799C17.2843 2.40973 17.5903 2.71569 17.782 3.09202L19.564 2.18404C19.1805 1.43139 18.5686 0.819467 17.816 0.435974L16.908 2.21799ZM5.8 0C4.97642 0 4.2986 -0.000777721 3.74817 0.0441936C3.18608 0.0901188 2.66937 0.188683 2.18404 0.435974L3.09202 2.21799C3.24842 2.1383 3.47262 2.07337 3.91104 2.03755C4.36113 2.00078 4.94342 2 5.8 2V0ZM2 5.8C2 4.94342 2.00078 4.36113 2.03755 3.91104C2.07337 3.47262 2.1383 3.24842 2.21799 3.09202L0.435974 2.18404C0.188683 2.66937 0.0901188 3.18608 0.0441936 3.74817C-0.000777721 4.2986 0 4.97642 0 5.8H2ZM2.18404 0.435974C1.43139 0.819467 0.819467 1.43139 0.435974 2.18404L2.21799 3.09202C2.40973 2.71569 2.71569 2.40973 3.09202 2.21799L2.18404 0.435974Z" fill="#5C5CE6"/>
</svg>
