<svg width="24" height="24" viewBox="0 0 24 24" fill="none" xmlns="http://www.w3.org/2000/svg">
<path d="M2 15C2 15.5523 2.44772 16 3 16C3.55228 16 4 15.5523 4 15H2ZM14 19C13.4477 19 13 19.4477 13 20C13 20.5523 13.4477 21 14 21V19ZM6 22C6 22.5523 6.44772 23 7 23C7.55228 23 8 22.5523 8 22H6ZM8 16C8 15.4477 7.55228 15 7 15C6.44772 15 6 15.4477 6 16H8ZM10 20C10.5523 20 11 19.5523 11 19C11 18.4477 10.5523 18 10 18V20ZM4 18C3.44772 18 3 18.4477 3 19C3 19.5523 3.44772 20 4 20V18ZM17.1522 13.7654L18.0761 13.3827L17.1522 13.7654ZM18.2346 14.8478L17.8519 15.7716L18.2346 14.8478ZM20.673 18.362L21.564 18.816L20.673 18.362ZM19.362 19.673L19.816 20.564L19.362 19.673ZM18.2346 9.15224L17.8519 8.22836L18.2346 9.15224ZM17.1522 10.2346L18.0761 10.6173L17.1522 10.2346ZM19.362 4.32698L19.816 3.43597L19.362 4.32698ZM20.673 5.63803L21.564 5.18404L20.673 5.63803ZM7.8 5H16.2V3H7.8V5ZM4 15V8.8H2V15H4ZM20 15V15.2H22V15H20ZM20 8.8V9H22V8.8H20ZM21 8H20V10H21V8ZM21 10V14H23V10H21ZM20 16H21V14H20V16ZM16.2 19H14V21H16.2V19ZM8 22V19H6V22H8ZM8 19V16H6V19H8ZM7 20H10V18H7V20ZM7 18H4V20H7V18ZM21 14V16C22.1046 16 23 15.1046 23 14H21ZM21 10H23C23 8.89543 22.1046 8 21 8V10ZM16 12C16 12.4523 15.9995 12.8415 16.0213 13.1624C16.0439 13.4922 16.0934 13.8221 16.2284 14.1481L18.0761 13.3827C18.0589 13.3411 18.0323 13.2542 18.0167 13.0262C18.0005 12.7893 18 12.4796 18 12H16ZM20 14C19.5204 14 19.2107 13.9995 18.9738 13.9833C18.7458 13.9677 18.6589 13.9411 18.6173 13.9239L17.8519 15.7716C18.1779 15.9066 18.5078 15.9561 18.8376 15.9787C19.1585 16.0005 19.5477 16 20 16V14ZM16.2284 14.1481C16.5328 14.8831 17.1169 15.4672 17.8519 15.7716L18.6173 13.9239C18.3723 13.8224 18.1776 13.6277 18.0761 13.3827L16.2284 14.1481ZM20 15.2C20 16.0566 19.9992 16.6389 19.9624 17.089C19.9266 17.5274 19.8617 17.7516 19.782 17.908L21.564 18.816C21.8113 18.3306 21.9099 17.8139 21.9558 17.2518C22.0008 16.7014 22 16.0236 22 15.2H20ZM16.2 21C17.0236 21 17.7014 21.0008 18.2518 20.9558C18.8139 20.9099 19.3306 20.8113 19.816 20.564L18.908 18.782C18.7516 18.8617 18.5274 18.9266 18.089 18.9624C17.6389 18.9992 17.0566 19 16.2 19V21ZM19.782 17.908C19.5903 18.2843 19.2843 18.5903 18.908 18.782L19.816 20.564C20.5686 20.1805 21.1805 19.5686 21.564 18.816L19.782 17.908ZM20 8C19.5477 8 19.1585 7.99946 18.8376 8.02135C18.5078 8.04385 18.1779 8.09336 17.8519 8.22836L18.6173 10.0761C18.6589 10.0589 18.7458 10.0323 18.9738 10.0167C19.2107 10.0005 19.5204 10 20 10V8ZM18 12C18 11.5204 18.0005 11.2107 18.0167 10.9738C18.0323 10.7458 18.0589 10.6589 18.0761 10.6173L16.2284 9.85195C16.0934 10.1779 16.0439 10.5078 16.0213 10.8376C15.9995 11.1585 16 11.5477 16 12H18ZM17.8519 8.22836C17.1169 8.53284 16.5328 9.11687 16.2284 9.85195L18.0761 10.6173C18.1776 10.3723 18.3723 10.1776 18.6173 10.0761L17.8519 8.22836ZM16.2 5C17.0566 5 17.6389 5.00078 18.089 5.03755C18.5274 5.07337 18.7516 5.1383 18.908 5.21799L19.816 3.43597C19.3306 3.18868 18.8139 3.09012 18.2518 3.04419C17.7014 2.99922 17.0236 3 16.2 3V5ZM22 8.8C22 7.97642 22.0008 7.2986 21.9558 6.74817C21.9099 6.18608 21.8113 5.66937 21.564 5.18404L19.782 6.09202C19.8617 6.24842 19.9266 6.47262 19.9624 6.91104C19.9992 7.36113 20 7.94342 20 8.8H22ZM18.908 5.21799C19.2843 5.40973 19.5903 5.71569 19.782 6.09202L21.564 5.18404C21.1805 4.43139 20.5686 3.81947 19.816 3.43597L18.908 5.21799ZM7.8 3C6.97642 3 6.2986 2.99922 5.74817 3.04419C5.18608 3.09012 4.66937 3.18868 4.18404 3.43597L5.09202 5.21799C5.24842 5.1383 5.47262 5.07337 5.91104 5.03755C6.36113 5.00078 6.94342 5 7.8 5V3ZM4 8.8C4 7.94342 4.00078 7.36113 4.03755 6.91104C4.07337 6.47262 4.1383 6.24842 4.21799 6.09202L2.43597 5.18404C2.18868 5.66937 2.09012 6.18608 2.04419 6.74817C1.99922 7.2986 2 7.97642 2 8.8H4ZM4.18404 3.43597C3.43139 3.81947 2.81947 4.43139 2.43597 5.18404L4.21799 6.09202C4.40973 5.71569 4.71569 5.40973 5.09202 5.21799L4.18404 3.43597Z" fill="#5C5CE6"/>
</svg>
