<svg width="24" height="24" viewBox="0 0 24 24" fill="none" xmlns="http://www.w3.org/2000/svg">
<path d="M14 20V7C14 6.06812 14 5.60218 14.1522 5.23463C14.3552 4.74458 14.7446 4.35523 15.2346 4.15224C15.6022 4 16.0681 4 17 4C17.9319 4 18.3978 4 18.7654 4.15224C19.2554 4.35523 19.6448 4.74458 19.8478 5.23463C20 5.60218 20 6.06812 20 7V20H14Z" stroke="#5C5CE6" stroke-width="2" stroke-linecap="round"/>
<path d="M4 11V20H10V11C10 10.0681 10 9.60218 9.84776 9.23463C9.64477 8.74458 9.25542 8.35523 8.76537 8.15224C8.39782 8 7.93188 8 7 8C6.06812 8 5.60218 8 5.23463 8.15224C4.74458 8.35523 4.35523 8.74458 4.15224 9.23463C4 9.60218 4 10.0681 4 11Z" stroke="#5C5CE6" stroke-width="2" stroke-linecap="round"/>
</svg>
