<svg width="25" height="24" viewBox="0 0 25 24" fill="none" xmlns="http://www.w3.org/2000/svg">
<g clip-path="url(#clip0_761_2288)">
<path d="M12.5 20C12.5 20.5523 12.9477 21 13.5 21C14.0523 21 14.5 20.5523 14.5 20H12.5ZM18.5 16C18.5 16.5523 18.9477 17 19.5 17C20.0523 17 20.5 16.5523 20.5 16H18.5ZM3.5 20H2.5V21H3.5V20ZM9.5 20V21H10.5V20H9.5ZM18.2071 19.2929C17.8166 18.9024 17.1834 18.9024 16.7929 19.2929C16.4024 19.6834 16.4024 20.3166 16.7929 20.7071L18.2071 19.2929ZM19.5 22L18.7929 22.7071C19.1834 23.0976 19.8166 23.0976 20.2071 22.7071L19.5 22ZM24.2071 18.7071C24.5976 18.3166 24.5976 17.6834 24.2071 17.2929C23.8166 16.9024 23.1834 16.9024 22.7929 17.2929L24.2071 18.7071ZM8.26537 8.15224L7.88268 9.07612L8.26537 8.15224ZM9.34776 9.23463L8.42388 9.61732L9.34776 9.23463ZM19.3478 5.23463L20.2716 4.85195L19.3478 5.23463ZM18.2654 4.15224L18.6481 3.22836L18.2654 4.15224ZM3.65224 9.23463L2.72836 8.85195L3.65224 9.23463ZM4.73463 8.15224L4.35195 7.22836L4.73463 8.15224ZM13.6522 5.23463L12.7284 4.85195L13.6522 5.23463ZM14.7346 4.15224L14.3519 3.22836L14.7346 4.15224ZM12.5 7V20H14.5V7H12.5ZM20.5 16V7H18.5V16H20.5ZM4.5 20V11H2.5V20H4.5ZM8.5 11V20H10.5V11H8.5ZM3.5 21H9.5V19H3.5V21ZM16.7929 20.7071L18.7929 22.7071L20.2071 21.2929L18.2071 19.2929L16.7929 20.7071ZM20.2071 22.7071L24.2071 18.7071L22.7929 17.2929L18.7929 21.2929L20.2071 22.7071ZM6.5 9C6.97962 9 7.28926 9.00054 7.52624 9.01671C7.75424 9.03227 7.84107 9.05888 7.88268 9.07612L8.64805 7.22836C8.32212 7.09336 7.99221 7.04385 7.66238 7.02135C7.34154 6.99946 6.95226 7 6.5 7V9ZM10.5 11C10.5 10.5477 10.5005 10.1585 10.4787 9.83762C10.4561 9.50779 10.4066 9.17788 10.2716 8.85195L8.42388 9.61732C8.44112 9.65893 8.46773 9.74576 8.48329 9.97376C8.49946 10.2107 8.5 10.5204 8.5 11H10.5ZM7.88268 9.07612C8.12771 9.17761 8.32239 9.37229 8.42388 9.61732L10.2716 8.85195C9.96716 8.11687 9.38313 7.53284 8.64805 7.22836L7.88268 9.07612ZM20.5 7C20.5 6.54774 20.5005 6.15846 20.4787 5.83762C20.4561 5.50779 20.4066 5.17788 20.2716 4.85195L18.4239 5.61732C18.4411 5.65893 18.4677 5.74576 18.4833 5.97376C18.4995 6.21074 18.5 6.52038 18.5 7H20.5ZM16.5 5C16.9796 5 17.2893 5.00054 17.5262 5.01671C17.7542 5.03227 17.8411 5.05888 17.8827 5.07612L18.6481 3.22836C18.3221 3.09336 17.9922 3.04385 17.6624 3.02135C17.3415 2.99946 16.9523 3 16.5 3V5ZM20.2716 4.85195C19.9672 4.11687 19.3831 3.53284 18.6481 3.22836L17.8827 5.07612C18.1277 5.17761 18.3224 5.37229 18.4239 5.61732L20.2716 4.85195ZM4.5 11C4.5 10.5204 4.50054 10.2107 4.51671 9.97376C4.53227 9.74576 4.55888 9.65893 4.57612 9.61732L2.72836 8.85195C2.59336 9.17788 2.54385 9.50779 2.52135 9.83762C2.49946 10.1585 2.5 10.5477 2.5 11H4.5ZM6.5 7C6.04774 7 5.65846 6.99946 5.33762 7.02135C5.00779 7.04385 4.67788 7.09336 4.35195 7.22836L5.11732 9.07612C5.15893 9.05888 5.24576 9.03227 5.47376 9.01671C5.71074 9.00054 6.02038 9 6.5 9V7ZM4.57612 9.61732C4.67761 9.37229 4.87229 9.17761 5.11732 9.07612L4.35195 7.22836C3.61687 7.53284 3.03284 8.11687 2.72836 8.85195L4.57612 9.61732ZM14.5 7C14.5 6.52038 14.5005 6.21074 14.5167 5.97376C14.5323 5.74576 14.5589 5.65893 14.5761 5.61732L12.7284 4.85195C12.5934 5.17788 12.5439 5.50779 12.5213 5.83762C12.4995 6.15846 12.5 6.54774 12.5 7H14.5ZM16.5 3C16.0477 3 15.6585 2.99946 15.3376 3.02135C15.0078 3.04385 14.6779 3.09336 14.3519 3.22836L15.1173 5.07612C15.1589 5.05888 15.2458 5.03227 15.4738 5.01671C15.7107 5.00054 16.0204 5 16.5 5V3ZM14.5761 5.61732C14.6776 5.37229 14.8723 5.17761 15.1173 5.07612L14.3519 3.22836C13.6169 3.53284 13.0328 4.11687 12.7284 4.85195L14.5761 5.61732Z" fill="#5C5CE6"/>
</g>
<defs>
<clipPath id="clip0_761_2288">
<rect width="24" height="24" fill="white" transform="translate(0.5)"/>
</clipPath>
</defs>
</svg>
