<svg width="24" height="24" viewBox="0 0 24 24" fill="none" xmlns="http://www.w3.org/2000/svg">
<path d="M16 13C16.5523 13 17 12.5523 17 12C17 11.4477 16.5523 11 16 11V13ZM8 11C7.44771 11 7 11.4477 7 12C7 12.5523 7.44771 13 8 13V11ZM13 8C13 7.44771 12.5523 7 12 7C11.4477 7 11 7.44771 11 8H13ZM11 16C11 16.5523 11.4477 17 12 17C12.5523 17 13 16.5523 13 16H11ZM16 11L12 11V13L16 13V11ZM12 11H8V13H12V11ZM13 12L13 8H11V12H13ZM11 12L11 16H13V12H11ZM12 4C16.4183 4 20 7.58172 20 12H22C22 6.47715 17.5228 2 12 2V4ZM4 12C4 7.58172 7.58172 4 12 4V2C6.47715 2 2 6.47715 2 12H4ZM12 20C7.58172 20 4 16.4183 4 12H2C2 17.5228 6.47715 22 12 22V20ZM12 22C17.5228 22 22 17.5228 22 12H20C20 16.4183 16.4183 20 12 20V22Z" fill="#5C5CE6"/>
</svg>
