<svg width="32" height="32" viewBox="0 0 32 32" fill="none" xmlns="http://www.w3.org/2000/svg">
<g clip-path="url(#clip0_658_1326)">
<path d="M0 16C0 7.16344 7.16344 0 16 0V0C24.8366 0 32 7.16344 32 16V16C32 24.8366 24.8366 32 16 32V32C7.16344 32 0 24.8366 0 16V16Z" fill="#F7F9FA"/>
<path d="M14.0282 23.1774C14.0282 23.1774 9.18874 23.2756 6.7297 27.3151C4.27066 31.3545 5.44685 33.0556 5.60685 34.2795L8.7789 32.8423C8.87434 33.1034 13.5342 34.9448 17.5961 34.7624C25.0883 34.4283 28.4821 30.6331 28.4821 30.6331C28.4821 30.6331 27.6877 25.2462 23.2468 24.0223C18.8059 22.7984 14.0282 23.1774 14.0282 23.1774Z" fill="#5C5CE5"/>
<path d="M13.9946 22.9359C13.9946 22.9359 12.9476 23.0959 12.9813 23.8538C13.0149 24.6118 13.1413 26.894 14.3175 26.3466C15.4936 25.7992 16.4902 24.143 16.4902 24.143L13.9946 22.9359Z" fill="white"/>
<path d="M19.4318 22.9359C19.4318 22.9359 20.4789 23.0959 20.448 23.8538C20.4171 24.6118 20.2852 26.894 19.1118 26.3466C17.9384 25.7992 16.9391 24.143 16.9391 24.143L19.4318 22.9359Z" fill="white"/>
<path d="M10.0365 12.0106C10.0365 12.0106 8.84627 19.5421 11.8387 20.5049C12.165 20.699 12.5277 20.824 12.9043 20.8723C13.2809 20.9206 13.6635 20.8911 14.0282 20.7857V23.1661C14.0282 23.1661 17.0515 25.4511 19.5302 23.0061V16.8781C19.5302 16.8781 19.2495 13.1306 18.5 13.5293C18.3287 13.6247 16.8157 13.4675 16.5687 10.7221C16.5687 10.7221 13.0934 9.17821 11.485 10.2393C9.87648 11.3004 10.0365 12.0106 10.0365 12.0106Z" fill="#F7AF87"/>
<path d="M9.30372 11.7579C9.48564 12.0883 9.73227 12.3787 10.0289 12.6116C10.3255 12.8446 10.666 13.0154 11.0301 13.1138C11.3971 13.2013 11.7823 13.1705 12.1307 13.0258C12.4791 12.8811 12.7728 12.6299 12.9698 12.3081C13.2704 12.7301 13.7157 13.0268 14.221 13.1418C14.7262 13.2567 15.256 13.1818 15.7096 12.9313C16.1082 13.4928 16.8689 13.6471 17.551 13.605C18.4255 13.5657 19.2583 13.2199 19.9034 12.6282C20.217 12.3285 20.4563 11.9598 20.6025 11.5515C20.7487 11.1432 20.7977 10.7064 20.7456 10.2758C20.5968 9.26803 19.836 8.45677 19.022 7.84763C17.7351 6.86702 16.2098 6.24778 14.6036 6.05388C13.1523 5.89106 10.8336 6.05388 9.72199 7.14865C8.61036 8.24343 8.50931 10.4218 9.30372 11.7579Z" fill="#DD6034"/>
<path d="M14.0283 20.8081C14.0283 20.8081 15.8614 20.3253 16.5379 19.4888C16.5379 19.4888 15.6031 23.1577 14.0283 23.1886V20.8081Z" fill="url(#paint0_linear_658_1326)"/>
<path d="M17.7474 12.5496L17.8793 15.1462L18.4015 14.4332C18.4801 14.3237 18.5867 14.2058 18.7187 14.2283C18.8506 14.2507 18.8815 14.3433 18.9264 14.4332C19.13 14.8516 19.2024 15.3218 19.1343 15.7821C19.0662 16.2424 18.8607 16.6714 18.5446 17.0129C18.4334 17.1088 18.3426 17.2263 18.2779 17.3582C18.2466 17.4724 18.2389 17.5918 18.2555 17.7091C18.3088 18.467 19.4261 19.3569 19.6169 18.8067C19.8078 18.2565 19.8443 17.6586 20.024 17.1027C20.3082 16.3877 20.7074 15.724 21.2058 15.1378C21.709 14.5495 22.0906 13.8673 22.3286 13.1307C22.5139 12.384 22.3679 11.5053 21.7672 11.0141C21.6544 10.942 21.5586 10.8462 21.4865 10.7334C21.4522 10.6437 21.4342 10.5487 21.4332 10.4527C21.3666 9.52011 20.981 8.63889 20.3412 7.95714C20.0193 7.62043 19.6298 7.35577 19.1981 7.18061C18.7665 7.00545 18.3027 6.92377 17.8372 6.94097C17.6796 6.94192 17.5241 6.97838 17.3825 7.04763C17.2535 7.13691 17.1446 7.25223 17.0629 7.38616C16.9812 7.52009 16.9284 7.66965 16.9081 7.82521C16.6077 9.22877 17.259 10.6323 17.5032 12.0583" fill="#DD6034"/>
</g>
<defs>
<linearGradient id="paint0_linear_658_1326" x1="15.9315" y1="23.9493" x2="13.8402" y2="15.5167" gradientUnits="userSpaceOnUse">
<stop stop-opacity="0"/>
<stop offset="0.99"/>
</linearGradient>
<clipPath id="clip0_658_1326">
<path d="M0 16C0 7.16344 7.16344 0 16 0V0C24.8366 0 32 7.16344 32 16V16C32 24.8366 24.8366 32 16 32V32C7.16344 32 0 24.8366 0 16V16Z" fill="white"/>
</clipPath>
</defs>
</svg>
